<svg id="Capa_1" enable-background="new 0 0 512 512" height="512" viewBox="0 0 512 512" width="512" xmlns="http://www.w3.org/2000/svg"><g><path d="m286 0h-60c-13.807 0-25 11.193-25 25v100.667c0 13.807 11.193 25 25 25h60c13.807 0 25-11.193 25-25v-100.667c0-13.807-11.193-25-25-25z"/><path d="m226 512h60c13.807 0 25-11.193 25-25v-100.667c0-13.807-11.193-25-25-25h-60c-13.807 0-25 11.193-25 25v100.667c0 13.807 11.193 25 25 25z"/><path d="m271 205.667v100.667c0 13.807 11.193 25 25 25h60c13.807 0 25-11.193 25-25v-100.667c0-13.807-11.193-25-25-25h-60c-13.807 0-25 11.192-25 25z"/><path d="m86 512h60c13.807 0 25-11.193 25-25v-100.667c0-13.807-11.193-25-25-25h-60c-13.807 0-25 11.193-25 25v100.667c0 13.807 11.193 25 25 25z"/><path d="m216 180.667h-60c-13.807 0-25 11.193-25 25v100.667c0 13.807 11.193 25 25 25h60c13.807 0 25-11.193 25-25v-100.667c0-13.808-11.193-25-25-25z"/><path d="m366 512h60c13.807 0 25-11.193 25-25v-100.667c0-13.807-11.193-25-25-25h-60c-13.807 0-25 11.193-25 25v100.667c0 13.807 11.193 25 25 25z"/></g></svg>